{"title":"MotoGP.2014x11.Czech.Republic.Qualifying.BTSportHD.SD","uid":10786260,"size":2337893277,"categoryP":"video","categoryS":"tv_shows","magnet":"?xt=urn:btih:c3f8b81343c2daeea465b650b4aafd4f7d01d4b0&amp;dn=MotoGP.2014x11.Czech.Republic.Qualifying.BTSportHD.SD&amp;tr=udp%3A%2F%2Ftracker.openbittorrent.com%3A80&amp;tr=udp%3A%2F%2Fopen.demonii.com%3A1337&amp;tr=udp%3A%2F%2Ftracker.coppersurfer.tk%3A6969&amp;tr=udp%3A%2F%2Fexodus.desync.com%3A6969","seeders":1,"leechers":1,"uploader":"smcgill1969","files":-1,"time":1408213061,"description":"Grand Prix of the Czech Republic - Live MotoGP qualifying action from the Masaryk Circuit, Brno. \n\n01.Pre-Qualifying.Buildup.SD.mp4 [0h35m - ]\n02.Qualifying.Moto3.SD.mp4 [0h58m - ]\n03.Qualifying.MotoGP.SD.mp4 [1h32m - ] \n04.Qualifying.Moto2.SD.mp4 [1h05m - ]\n\n~~~~\nVideo\nID                                       : 1\nFormat                                   : AVC\nFormat/Info                              : Advanced Video Codec\nFormat profile                           : &lt;a class=&quot;__cf_email__&quot; href=&quot;/cdn-cgi/l/email-protection&quot; data-cfemail=&quot;5d15343a351d116e736c&quot;&gt;[email&amp;#160;protected]&lt;/a&gt;&lt;script cf-hash='f9e31' type=&quot;text/javascript&quot;&gt;\n/* &lt;![CDATA[ */!function(){try{var t=&quot;currentScript&quot;in document?document.currentScript:function(){for(var t=document.getElementsByTagName(&quot;script&quot;),e=t.length;e--;)if(t[e].getAttribute(&quot;cf-hash&quot;))return t[e]}();if(t&amp;&amp;t.previousSibling){var e,r,n,i,c=t.previousSibling,a=c.getAttribute(&quot;data-cfemail&quot;);if(a){for(e=&quot;&quot;,r=parseInt(a.substr(0,2),16),n=2;a.length-n;n+=2)i=parseInt(a.substr(n,2),16)^r,e+=String.fromCharCode(i);e=document.createTextNode(e),c.parentNode.replaceChild(e,c)}}}catch(u){}}();/* ]]&gt; */&lt;/script&gt;\nFormat settings, CABAC                   : Yes\nFormat settings, ReFrames                : 4 frames\nCodec ID                                 : avc1\nCodec ID/Info                            : Advanced Video Coding\nDuration                                 : 1h 5mn\nBit rate                                 : 1 059 Kbps\nWidth                                    : 640 pixels\nHeight                                   : 360 pixels\nDisplay aspect ratio                     : 16:9\nFrame rate mode                          : Constant\nFrame rate                               : 25.000 fps\nColor space                              : YUV\nChroma subsampling                       : 4:2:0\nBit depth                                : 8 bits\nScan type                                : Progressive\nBits/(Pixel*Frame)                       : 0.184\nStream size                              : 497 MiB (89%)\nWriting library                          : x264 core 130 r2273 b3065e6\nEncoding settings                        : cabac=1 / ref=1 / deblock=1:0:0 / analyse=0x3:0x113 / me=hex / subme=2 / psy=1 / psy_rd=1.00:0.00 / mixed_ref=0 / me_range=16 / chroma_me=1 / trellis=0 / 8x8dct=1 / cqm=0 / deadzone=21,11 / fast_pskip=1 / chroma_qp_offset=0 / threads=12 / lookahead_threads=2 / sliced_threads=0 / nr=0 / decimate=1 / interlaced=0 / bluray_compat=0 / constrained_intra=0 / bframes=3 / b_pyramid=2 / b_adapt=1 / b_bias=0 / direct=1 / weightb=1 / open_gop=0 / weightp=1 / keyint=250 / keyint_min=25 / scenecut=40 / intra_refresh=0 / rc_lookahead=10 / rc=crf / mbtree=1 / crf=20.0 / qcomp=0.60 / qpmin=0 / qpmax=69 / qpstep=4 / vbv_maxrate=17500 / vbv_bufsize=17500 / crf_max=0.0 / nal_hrd=none / ip_ratio=1.40 / aq=1:1.00\nEncoded date                             : UTC 2014-08-16 15:29:01\nTagged date                              : UTC 2014-08-16 15:45:35\nColor primaries                          : BT.709\nTransfer characteristics                 : BT.709\nMatrix coefficients                      : BT.709\n\nAudio\nID                                       : 2\nFormat                                   : AAC\nFormat/Info                              : Advanced Audio Codec\nFormat profile                           : LC\nCodec ID                                 : 40\nDuration                                 : 1h 5mn\nBit rate mode                            : Variable\nBit rate                                 : 128 Kbps\nMaximum bit rate                         : 307 Kbps\nChannel(s)                               : 2 channels\nChannel positions                        : Front: L R\nSampling rate                            : 44.1 KHz\nCompression mode                         : Lossy\nStream size                              : 60.0 MiB (11%)\nEncoded date                             : UTC 2014-08-16 15:29:01\nTagged date                              : UTC 2014-08-16 15:45:34\n\n","torrent":{"xt":"urn:btih:c3f8b81343c2daeea465b650b4aafd4f7d01d4b0","amp;dn":"MotoGP.2014x11.Czech.Republic.Qualifying.BTSportHD.SD","amp;tr":["udp%3A%2F%2Ftracker.openbittorrent.com%3A80","udp%3A%2F%2Fopen.demonii.com%3A1337","udp%3A%2F%2Ftracker.coppersurfer.tk%3A6969","udp%3A%2F%2Fexodus.desync.com%3A6969"],"infoHash":"c3f8b81343c2daeea465b650b4aafd4f7d01d4b0","infoHashBuffer":{"type":"Buffer","data":[195,248,184,19,67,194,218,238,164,101,182,80,180,170,253,79,125,1,212,176]},"announce":[],"urlList":[]}}